<svg id="Capa_1" enable-background="new 0 0 512 512" height="512" viewBox="0 0 512 512" width="512" xmlns="http://www.w3.org/2000/svg" xmlns:xlink="http://www.w3.org/1999/xlink"><linearGradient id="SVGID_1_" gradientUnits="userSpaceOnUse" x1="256" x2="256" y1="512" y2="0"><stop offset="0" stop-color="#ffbef9"/><stop offset="1" stop-color="#fff1ff"/></linearGradient><linearGradient id="SVGID_2_" gradientUnits="userSpaceOnUse" x1="256" x2="256" y1="407" y2="105"><stop offset="0" stop-color="#ff81ff"/><stop offset="1" stop-color="#a93aff"/></linearGradient><g><circle cx="256" cy="256" fill="url(#SVGID_1_)" r="256"/></g><g><g><path d="m380.6 353.706c-14.723 0-26.7-11.953-26.7-26.647v-85.805c0-53.838-42.553-100.725-97.9-100.725-54.235 0-97.9 44.06-97.9 97.706v88.823c0 14.694-11.977 26.647-26.7 26.647-4.919 0-8.9 3.973-8.9 8.882s3.981 8.882 8.9 8.882h249.2c4.919 0 8.9-3.973 8.9-8.882s-3.981-8.881-8.9-8.881zm-124.6 53.294c11.588 0 21.374-7.448 25.062-17.765h-50.123c3.687 10.317 13.473 17.765 25.061 17.765zm26.044-281.077c-2.636-11.944-13.294-20.923-26.044-20.923-12.809 0-23.519 9.055-26.094 21.083 8.513-1.97 17.192-3.318 26.094-3.318 9.04 0 15.813.689 26.044 3.158z" fill="url(#SVGID_2_)"/></g></g></svg>